{
	"asset":{
		"generator":"Khronos glTF Blender I/O v3.6.28",
		"version":"2.0"
	},
	"scene":0,
	"scenes":[
		{
			"name":"Scene",
			"nodes":[
				0
			]
		}
	],
	"nodes":[
		{
			"mesh":0,
			"name":"SM_Predio_MQ",
			"translation":[
				0.5408974289894104,
				0.0018567719962447882,
				0.05764633044600487
			]
		}
	],
	"materials":[
		{
			"doubleSided":true,
			"name":"[Translucent_Glass_Blue]",
			"pbrMetallicRoughness":{
				"baseColorFactor":[
					0.054592277854681015,
					0.1332085132598877,
					0.373615026473999,
					0.026363670825958252
				],
				"metallicFactor":0,
				"roughnessFactor":0.5
			}
		},
		{
			"doubleSided":true,
			"name":"M_Creme_8_MQ",
			"pbrMetallicRoughness":{
				"baseColorFactor":[
					0.8494573831558228,
					0.6966724991798401,
					0.39140748977661133,
					1
				],
				"metallicFactor":0
			}
		}
	],
	"meshes":[
		{
			"name":"G-Object.002",
			"primitives":[
				{
					"attributes":{
						"POSITION":0,
						"NORMAL":1,
						"TEXCOORD_0":2
					},
					"indices":3,
					"material":0
				},
				{
					"attributes":{
						"POSITION":4,
						"NORMAL":5,
						"TEXCOORD_0":6
					},
					"indices":7,
					"material":1
				}
			]
		}
	],
	"accessors":[
		{
			"bufferView":0,
			"componentType":5126,
			"count":226,
			"max":[
				0.11701623350381851,
				1.882413387298584,
				0.48036855459213257
			],
			"min":[
				-0.11888498067855835,
				0.0042791785672307014,
				-0.19815468788146973
			],
			"type":"VEC3"
		},
		{
			"bufferView":1,
			"componentType":5126,
			"count":226,
			"type":"VEC3"
		},
		{
			"bufferView":2,
			"componentType":5126,
			"count":226,
			"type":"VEC2"
		},
		{
			"bufferView":3,
			"componentType":5123,
			"count":471,
			"type":"SCALAR"
		},
		{
			"bufferView":4,
			"componentType":5126,
			"count":18063,
			"max":[
				0.4140487611293793,
				1.888535499572754,
				0.5543035268783569
			],
			"min":[
				-0.41097399592399597,
				-0.01149771735072136,
				-0.2707192301750183
			],
			"type":"VEC3"
		},
		{
			"bufferView":5,
			"componentType":5126,
			"count":18063,
			"type":"VEC3"
		},
		{
			"bufferView":6,
			"componentType":5126,
			"count":18063,
			"type":"VEC2"
		},
		{
			"bufferView":7,
			"componentType":5123,
			"count":30510,
			"type":"SCALAR"
		}
	],
	"bufferViews":[
		{
			"buffer":0,
			"byteLength":2712,
			"byteOffset":0,
			"target":34962
		},
		{
			"buffer":0,
			"byteLength":2712,
			"byteOffset":2712,
			"target":34962
		},
		{
			"buffer":0,
			"byteLength":1808,
			"byteOffset":5424,
			"target":34962
		},
		{
			"buffer":0,
			"byteLength":942,
			"byteOffset":7232,
			"target":34963
		},
		{
			"buffer":0,
			"byteLength":216756,
			"byteOffset":8176,
			"target":34962
		},
		{
			"buffer":0,
			"byteLength":216756,
			"byteOffset":224932,
			"target":34962
		},
		{
			"buffer":0,
			"byteLength":144504,
			"byteOffset":441688,
			"target":34962
		},
		{
			"buffer":0,
			"byteLength":61020,
			"byteOffset":586192,
			"target":34963
		}
	],
	"buffers":[
		{
			"byteLength":647212,
			"uri":"data:application/octet-stream;base64,"
		}
	]
}
